<?xml version="1.0" encoding="UTF-8" standalone="no"?>
<svg
   width="3298.1951mm"
   height="2343.4541mm"
   viewBox="0 0 3298.1951 2343.4541"
   version="1.1"
   id="svg8"
   xmlns="http://www.w3.org/2000/svg"
   xmlns:svg="http://www.w3.org/2000/svg"
   xmlns:rdf="http://www.w3.org/1999/02/22-rdf-syntax-ns#"
   xmlns:cc="http://creativecommons.org/ns#"
   xmlns:dc="http://purl.org/dc/elements/1.1/">
  <defs
     id="defs2" />
  <metadata
     id="metadata5">
    <rdf:RDF>
      <cc:Work
         rdf:about="">
        <dc:format>image/svg+xml</dc:format>
        <dc:type
           rdf:resource="http://purl.org/dc/dcmitype/StillImage" />
      </cc:Work>
    </rdf:RDF>
  </metadata>
  <g
     id="layer1"
     transform="translate(-1748.5418,11925.602)">
    <path
       style="fill:none;fill-opacity:1;stroke:#ffacac;stroke-width:27.465;stroke-linecap:butt;stroke-linejoin:miter;stroke-miterlimit:4;stroke-dasharray:164.79, 27.465;stroke-dashoffset:0;stroke-opacity:1"
       d="m 2299.9166,-11675.343 c 55.5521,94.816 179.2085,185.628 -14.8365,248.158 -194.045,62.531 -716.8554,248.055 -447.0528,411.809 269.8027,163.753 770.2045,23.246 867.1754,206.32 96.9709,183.073 -221.666,911.6977 -133.6248,1091.9375 123.5879,253.0118 376.5901,59.2247 782.1449,-120.8471 590.6352,-333.5044 1072.4446,162.5034 1078.1513,-545.9984 321.2488,-199.993 473.6159,-258.187 526.7651,-338.15 53.1493,-79.962 106.1865,-250.612 50.9963,-417.301 -133.628,-357.236 -571.4858,-185.953 -842.0484,-333.15 -114.3857,-70.314 -106.569,-366.045 -366.398,-424.159 -259.8291,-58.116 -315.5322,64.435 -470.7205,140.91 -227.2595,102.132 -1082.5376,-45.083 -1030.552,80.471 z"
       id="path2271" />
    <rect
       style="fill:#ffffff;fill-opacity:1;stroke:none;stroke-width:5.79884;stroke-miterlimit:4;stroke-dasharray:11.5977, 11.5977;stroke-dashoffset:0;stroke-opacity:1;paint-order:stroke fill markers"
       id="rect2308"
       width="190.56152"
       height="181.15649"
       x="9952.0088"
       y="-9272.418"
       ry="20.585051"
       transform="matrix(0.86469344,-0.50229997,0.73760883,0.67522827,0,0)" />
    <path
       style="fill:#c5ddf7;fill-opacity:1;stroke:none;stroke-width:0.264583px;stroke-linecap:butt;stroke-linejoin:miter;stroke-opacity:1"
       d="m 2571.7736,-11457.739 c 37.4786,-34.692 -280.6169,-194.024 252.6024,-202.485 533.2191,-8.464 993.6169,-230.843 1203.7147,153.016 210.0978,383.858 893.0455,-57.806 877.9199,627.568 -5.6885,257.756 -1127.3439,-48.63 -1217.8123,657.872 -20.4724,159.876 -439.1871,442.9055 -627.1078,244.9371 -187.9206,-197.9691 -110.4749,-562.0911 -264.0094,-827.3411 -153.5346,-265.25 -458.6517,-177.841 -554.7595,-327.482 -96.1085,-149.64 291.9734,-291.393 329.452,-326.085 z"
       id="path3018-5" />
    <path
       style="fill:#d9f6f1;fill-opacity:1;stroke:none;stroke-width:0.264583px;stroke-linecap:butt;stroke-linejoin:miter;stroke-opacity:1"
       d="m 4433.4895,-10916.537 c 125.285,-8.817 233.1629,-52.966 281.0411,34.018 47.8785,86.988 -16.2256,205.341 38.5923,298.562 40.6535,51.029 81.9332,36.938 86.7602,147.252 4.8268,110.311 -314.332,182.776 -318.8113,264.725 -8.547,156.372 239.3701,137.804 253.003,200.3662 50.4773,231.6465 -390.5343,454.334 -540.8368,354.1494 -160.5953,-107.0452 -258.8484,-11.0904 -311.3309,-107.5264 -43.9917,-80.8343 74.0015,-223.3481 66.0173,-268.08 -7.9842,-44.7322 -160.7294,17.4569 -185.8074,-71.8372 -25.0779,-89.296 -20.4771,-217.791 -1.7614,-290.722 23.2036,-90.419 6.6991,-70.048 62.535,-166.437 67.3498,-130.036 53.6474,-150.957 194.8187,-175.048 51.5571,3.618 -43.469,-133.517 20.1555,-184.124 60.2243,-47.907 46.0285,-118.644 115.5769,-150.829 147.6844,-68.344 155.7744,80.064 240.0478,115.531 z"
       id="path3000-4" />
    <path
       style="fill:#d9f6f1;fill-opacity:1;stroke:none;stroke-width:0.264583px;stroke-linecap:butt;stroke-linejoin:miter;stroke-opacity:1"
       d="m 3270.8667,-10686.426 c 20.5352,45.13 -79.0971,12.125 -125.9546,42.69 -71.5216,46.656 -189.3356,107.354 -133.3444,197.795 31.0628,50.174 291.8177,-50.814 418.6843,-55.002 126.8666,-4.188 257.134,-24.331 234.586,-182.196 -9.025,-63.19 -104.3874,41.591 -75.6154,-30.462 28.7724,-72.055 109.6707,-42.234 71.4766,-183.725 -25.6722,-95.103 -127.2385,-57.567 -175.5577,-183.401 -48.3192,-125.838 -90.4389,-172.467 -208.8071,-291.712 -58.9226,-59.361 148.5124,-125.182 109.3438,-187.565 -59.665,-84.799 -94.8848,13.933 -164.2919,-56.999 -48.4509,-49.512 141.854,-179.074 50.7557,-196.224 -189.7229,-35.715 -323.7528,103.983 -380.4305,168.478 -56.6777,64.496 -20.124,269.311 45.9917,322.341 66.116,53.029 172.8303,26.677 178.2771,67.275 -138.863,42.028 3.6423,130.539 3.6423,130.539 30.3906,17.308 48.2949,-10.65 91.3718,30.904 41.9358,40.453 42.2557,71.78 6.8095,106.423 -35.4459,34.644 -63.5949,-41.059 -107.9223,26.768 -52.0812,79.692 -127.0487,221.927 -25.0291,259.697 94.7625,34.082 110.4977,21.184 186.0142,14.376 z"
       id="path3016-0" />
    <text
       xml:space="preserve"
       style="font-style:normal;font-variant:normal;font-weight:bold;font-stretch:normal;font-size:84.6788px;line-height:1.25;font-family:Nunito;-inkscape-font-specification:'Nunito, Bold';font-variant-ligatures:normal;font-variant-caps:normal;font-variant-numeric:normal;font-variant-east-asian:normal;letter-spacing:0px;word-spacing:0px;fill:#a3c1bc;fill-opacity:1;stroke-width:0.264583"
       x="4048.4968"
       y="-10445.43"
       id="text3084-8-0-9"
       transform="scale(1.0594397,0.94389516)"><tspan
         id="tspan3082-1-3-2"
         x="4048.4968"
         y="-10445.43"
         style="font-style:normal;font-variant:normal;font-weight:bold;font-stretch:normal;font-size:84.6788px;font-family:Nunito;-inkscape-font-specification:'Nunito, Bold';font-variant-ligatures:normal;font-variant-caps:normal;font-variant-numeric:normal;font-variant-east-asian:normal;fill:#a3c1bc;fill-opacity:1;stroke-width:0.264583">Heilbronn</tspan></text>
    <path
       style="fill:#d9f6f1;fill-opacity:1;stroke:none;stroke-width:0.264583px;stroke-linecap:butt;stroke-linejoin:miter;stroke-opacity:1"
       d="m 2869.1131,-11175.035 c 0,0 7.8304,-39.855 38.0523,-44.835 30.2222,-4.984 66.4004,-38.58 91.7187,-13.342 25.3183,25.239 14.8827,63.191 34.7026,75.337 19.82,12.142 17.9784,41.311 -11.7858,73.676 -29.7642,32.364 -44.144,24.722 -64.6899,12.588 -20.5459,-12.136 -20.4606,-55.599 -37.4526,-48.279 -16.9917,7.323 1.3806,63.752 -47.2539,35.854 -34.3524,-19.705 -58.3293,-34.179 -42.6208,-48.656 22.1765,-20.434 24.7811,-9.927 20.0891,-20.786 -4.692,-10.862 -4.0103,-36.85 6.8535,-34.604 10.8639,2.246 12.3868,13.047 12.3868,13.047 z"
       id="path3158-7" />
    <path
       style="fill:#f9f9f9;stroke:none;stroke-width:0.264583px;stroke-linecap:butt;stroke-linejoin:miter;stroke-opacity:1"
       d="m 4253.3266,-9919.0161 c 0,0 7.4912,11.8584 11.1903,16.5142 3.237,3.9259 16.8342,12.7792 16.8342,12.7792 0,0 -12.4694,8.0625 -17.1404,12.9049 -4.6706,4.8383 -10.8841,16.133 -10.8841,16.133 l -13.0274,-16.4738 -17.29,-12.5641 c 0,0 12.9585,-7.7948 18.0116,-12.6778 5.0527,-4.8788 12.3058,-16.6156 12.3058,-16.6156 z"
       id="path4244-7-7-6-7-9-1-9-9-8" />
    <text
       xml:space="preserve"
       style="font-style:normal;font-variant:normal;font-weight:bold;font-stretch:normal;font-size:84.6788px;line-height:1.25;font-family:Nunito;-inkscape-font-specification:'Nunito, Bold';font-variant-ligatures:normal;font-variant-caps:normal;font-variant-numeric:normal;font-variant-east-asian:normal;letter-spacing:0px;word-spacing:0px;fill:#a3c1bc;fill-opacity:1;stroke-width:0.264583"
       x="3898.7566"
       y="-10573.995"
       id="text3084-8-0-9-9"
       transform="scale(1.0594397,0.94389516)"><tspan
         id="tspan3082-1-3-2-7"
         x="3898.7566"
         y="-10573.995"
         style="font-style:normal;font-variant:normal;font-weight:bold;font-stretch:normal;font-size:84.6788px;font-family:Nunito;-inkscape-font-specification:'Nunito, Bold';font-variant-ligatures:normal;font-variant-caps:normal;font-variant-numeric:normal;font-variant-east-asian:normal;fill:#a3c1bc;fill-opacity:1;stroke-width:0.264583">Heidelberg</tspan></text>
    <path
       style="fill:#f9f9f9;stroke:none;stroke-width:0.264583px;stroke-linecap:butt;stroke-linejoin:miter;stroke-opacity:1"
       d="m 4097.5243,-10038.428 c 0,0 7.4913,11.859 11.1903,16.515 3.237,3.926 16.8343,12.779 16.8343,12.779 0,0 -12.4694,8.062 -17.1405,12.9048 -4.6706,4.8383 -10.8841,16.133 -10.8841,16.133 l -13.0274,-16.4738 -17.29,-12.564 c 0,0 12.9585,-7.795 18.0116,-12.678 5.0527,-4.879 12.3058,-16.616 12.3058,-16.616 z"
       id="path4244-7-7-6-7-9-1-9-9-8-3" />
    <text
       xml:space="preserve"
       style="font-style:normal;font-variant:normal;font-weight:bold;font-stretch:normal;font-size:84.6788px;line-height:1.25;font-family:Nunito;-inkscape-font-specification:'Nunito, Bold';font-variant-ligatures:normal;font-variant-caps:normal;font-variant-numeric:normal;font-variant-east-asian:normal;letter-spacing:0px;word-spacing:0px;fill:#a3c1bc;fill-opacity:1;stroke-width:0.264583"
       x="3606.6287"
       y="-10698.107"
       id="text3084-8-0-9-9-6"
       transform="scale(1.0594397,0.94389516)"><tspan
         id="tspan3082-1-3-2-7-1"
         x="3606.6287"
         y="-10698.107"
         style="font-style:normal;font-variant:normal;font-weight:bold;font-stretch:normal;font-size:84.6788px;font-family:Nunito;-inkscape-font-specification:'Nunito, Bold';font-variant-ligatures:normal;font-variant-caps:normal;font-variant-numeric:normal;font-variant-east-asian:normal;fill:#a3c1bc;fill-opacity:1;stroke-width:0.264583">Frankfurt</tspan></text>
    <path
       style="fill:#f9f9f9;stroke:none;stroke-width:0.264583px;stroke-linecap:butt;stroke-linejoin:miter;stroke-opacity:1"
       d="m 4294.4767,-10155.577 c 0,0 7.4913,11.859 11.1903,16.515 3.237,3.926 16.8343,12.779 16.8343,12.779 0,0 -12.4694,8.062 -17.1405,12.905 -4.6706,4.838 -10.8841,16.133 -10.8841,16.133 l -13.0274,-16.474 -17.29,-12.564 c 0,0 12.9585,-7.795 18.0116,-12.678 5.0527,-4.879 12.3058,-16.616 12.3058,-16.616 z"
       id="path4244-7-7-6-7-9-1-9-9-8-3-2" />
    <text
       xml:space="preserve"
       style="font-style:normal;font-variant:normal;font-weight:bold;font-stretch:normal;font-size:84.6788px;line-height:1.25;font-family:Nunito;-inkscape-font-specification:'Nunito, Bold';font-variant-ligatures:normal;font-variant-caps:normal;font-variant-numeric:normal;font-variant-east-asian:normal;letter-spacing:0px;word-spacing:0px;fill:#a3c1bc;fill-opacity:1;stroke-width:0.264583"
       x="4009.304"
       y="-11433.481"
       id="text3084-8-0-9-9-6-3"
       transform="scale(1.0594397,0.94389516)"><tspan
         id="tspan3082-1-3-2-7-1-6"
         x="4009.304"
         y="-11433.481"
         style="font-style:normal;font-variant:normal;font-weight:bold;font-stretch:normal;font-size:84.6788px;font-family:Nunito;-inkscape-font-specification:'Nunito, Bold';font-variant-ligatures:normal;font-variant-caps:normal;font-variant-numeric:normal;font-variant-east-asian:normal;fill:#a3c1bc;fill-opacity:1;stroke-width:0.264583">Hamburg</tspan></text>
    <path
       style="fill:#f9f9f9;stroke:none;stroke-width:0.264583px;stroke-linecap:butt;stroke-linejoin:miter;stroke-opacity:1"
       d="m 4216.5372,-10849.943 c 0,0 7.4913,11.859 11.1903,16.515 3.237,3.926 16.8343,12.779 16.8343,12.779 0,0 -12.4694,8.062 -17.1405,12.905 -4.6706,4.838 -10.8841,16.133 -10.8841,16.133 l -13.0274,-16.474 -17.29,-12.564 c 0,0 12.9585,-7.795 18.0116,-12.678 5.0527,-4.879 12.3058,-16.616 12.3058,-16.616 z"
       id="path4244-7-7-6-7-9-1-9-9-8-3-2-7" />
    <text
       xml:space="preserve"
       style="font-style:normal;font-variant:normal;font-weight:bold;font-stretch:normal;font-size:84.6788px;line-height:1.25;font-family:Nunito;-inkscape-font-specification:'Nunito, Bold';font-variant-ligatures:normal;font-variant-caps:normal;font-variant-numeric:normal;font-variant-east-asian:normal;letter-spacing:0px;word-spacing:0px;fill:#a3c1bc;fill-opacity:1;stroke-width:0.264583"
       x="3015.0447"
       y="-11205.432"
       id="text3084-8-0-9-9-6-9"
       transform="scale(1.0594397,0.94389516)"><tspan
         id="tspan3082-1-3-2-7-1-3"
         x="3015.0447"
         y="-11205.432"
         style="font-style:normal;font-variant:normal;font-weight:bold;font-stretch:normal;font-size:84.6788px;font-family:Nunito;-inkscape-font-specification:'Nunito, Bold';font-variant-ligatures:normal;font-variant-caps:normal;font-variant-numeric:normal;font-variant-east-asian:normal;fill:#a3c1bc;fill-opacity:1;stroke-width:0.264583">London</tspan></text>
    <path
       style="fill:#f9f9f9;stroke:none;stroke-width:0.264583px;stroke-linecap:butt;stroke-linejoin:miter;stroke-opacity:1"
       d="m 3566.6521,-10634.439 c 0,0 7.4913,11.859 11.1903,16.515 3.237,3.926 16.8343,12.779 16.8343,12.779 0,0 -12.4694,8.062 -17.1405,12.905 -4.6706,4.838 -10.8841,16.133 -10.8841,16.133 l -13.0274,-16.474 -17.29,-12.564 c 0,0 12.9585,-7.795 18.0116,-12.678 5.0527,-4.879 12.3058,-16.616 12.3058,-16.616 z"
       id="path4244-7-7-6-7-9-1-9-9-8-3-2-1" />
    <path
       fill="currentColor"
       d="m 1855.0644,-11266.603 37.5044,-21.497 -0.1095,-80.129 c 0,-2.172 1.1606,-4.179 3.0452,-5.259 l 21.4938,-12.321 c 3.4884,-1.998 7.9186,-0.103 8.8831,3.799 l 16.1888,65.536 33.7537,-19.347 3.342,-27.027 c 0.2326,-1.891 1.3449,-3.563 2.9958,-4.508 l 13.1224,-7.524 c 3.4162,-1.957 7.7633,-0.184 8.8328,3.607 l 9.9969,41.406 30.6762,29.553 c 2.7305,2.838 2.0628,7.485 -1.3534,9.443 l -13.123,7.521 c -1.6538,0.949 -3.6544,1.062 -5.4044,0.299 l -25.0109,-10.777 -33.7531,19.349 48.3662,47.088 c 2.8805,2.806 2.2785,7.588 -1.21,9.587 l -21.4937,12.32 c -1.8838,1.08 -4.2025,1.065 -6.0735,-0.03 l -69.0903,-40.591 -37.5044,21.497 c -11.6002,6.65 -36.8904,8.658 -43.5396,-2.943 -6.6494,-11.601 7.8638,-32.41 19.4641,-39.059 z"
       id="path2295"
       style="fill:#d1d9e6;fill-opacity:1;stroke-width:0.264584" />
  </g>
</svg>
